<?xml version="1.0" encoding="iso-8859-1"?>
<!-- Generator: Adobe Illustrator 19.0.0, SVG Export Plug-In . SVG Version: 6.00 Build 0)  -->
<svg version="1.1" id="Capa_1" xmlns="http://www.w3.org/2000/svg" xmlns:xlink="http://www.w3.org/1999/xlink" x="0px" y="0px"
	 viewBox="0 0 512 512" style="enable-background:new 0 0 512 512;" xml:space="preserve">
<path style="fill:#7FECA0;" d="M238.416,435.06C379.514,442.576,512,351.353,512,220.284C512,95.128,390.037,5,256,5
	C121.166,5,0,95.769,0,220.284c0,123.038,122.837,235.238,238.682,285.478c6.536,2.834,14.214,0.685,18.304-5.229
	c4.072-5.887,3.417-13.831-1.565-18.972c-29.686-30.633-31.09-42.511-31.063-44.626c0.519-0.343,1.678-0.927,3.696-1.448
	C231.091,434.702,232.458,434.742,238.416,435.06z"/>
<path style="fill:#3AD475;" d="M512,220.284C512,95.128,390.037,5,256,5v430.474C390.324,434.888,512,345.891,512,220.284z"/>
<g>
	<path style="fill:#57606E;" d="M186,136.143h140c8.284,0,15-6.716,15-15s-6.716-15-15-15H186c-8.284,0-15,6.716-15,15
		S177.716,136.143,186,136.143z"/>
	<path style="fill:#57606E;" d="M406,206.286H106c-8.284,0-15,6.716-15,15s6.716,15,15,15h300c8.284,0,15-6.716,15-15
		S414.284,206.286,406,206.286z"/>
	<path style="fill:#57606E;" d="M406,276.386H106c-8.284,0-15,6.716-15,15s6.716,15,15,15h300c8.284,0,15-6.716,15-15
		S414.284,276.386,406,276.386z"/>
</g>
<path style="fill:#7FECA0;" d="M256.986,500.533c3.906-5.646,3.451-13.177-0.986-18.32v19.581
	C256.346,501.393,256.679,500.977,256.986,500.533z"/>
<g>
	<path style="fill:#2F3542;" d="M326,106.143h-70v30h70c8.284,0,15-6.716,15-15S334.284,106.143,326,106.143z"/>
	<path style="fill:#2F3542;" d="M406,206.286H256v30h150c8.284,0,15-6.716,15-15S414.284,206.286,406,206.286z"/>
	<path style="fill:#2F3542;" d="M406,276.386H256v30h150c8.284,0,15-6.716,15-15S414.284,276.386,406,276.386z"/>
</g>
<g>
</g>
<g>
</g>
<g>
</g>
<g>
</g>
<g>
</g>
<g>
</g>
<g>
</g>
<g>
</g>
<g>
</g>
<g>
</g>
<g>
</g>
<g>
</g>
<g>
</g>
<g>
</g>
<g>
</g>
</svg>
