<svg enable-background="new 0 0 32 32" height="512" viewBox="0 0 32 32" width="512" xmlns="http://www.w3.org/2000/svg"><path d="m26 32h-20c-3.314 0-6-2.686-6-6v-20c0-3.314 2.686-6 6-6h20c3.314 0 6 2.686 6 6v20c0 3.314-2.686 6-6 6z" fill="#f5e6fe"/><path d="m22.167 8h-12.334c-1.011 0-1.833.822-1.833 1.833v12.333c0 1.012.822 1.834 1.833 1.834h12.333c1.012 0 1.834-.822 1.834-1.833v-12.334c0-1.011-.822-1.833-1.833-1.833zm-.833 4.94-6.152 7c-.121.138-.294.22-.479.226-.007.001-.015.001-.022.001-.176 0-.345-.07-.471-.194l-3.515-3.5c-.26-.26-.262-.682-.002-.943.26-.259.682-.262.943-.002l3.012 2.999 5.684-6.467c.243-.276.663-.303.941-.061.277.243.305.664.061.941z" fill="#be63f9"/></svg>