<?xml version="1.0" encoding="iso-8859-1"?>
<!-- Generator: Adobe Illustrator 19.0.0, SVG Export Plug-In . SVG Version: 6.00 Build 0)  -->
<svg version="1.1" id="Capa_1" xmlns="http://www.w3.org/2000/svg" xmlns:xlink="http://www.w3.org/1999/xlink" x="0px" y="0px"
	 viewBox="0 0 512 512" style="enable-background:new 0 0 512 512;" xml:space="preserve">
<path style="fill:#FEA832;" d="M311.463,474.612c-5.728,2.333-12.092,1.06-16.335-3.182L40.57,216.872
	c-4.243-4.243-5.516-10.607-3.182-16.335c2.334-5.727,7.638-9.334,13.79-9.122c23.122-0.212,45.608-9.546,61.73-25.668l1.908-1.908
	h42.426l190.919,190.919v42.426l-1.908,1.908c-16.335,16.335-25.668,38.396-25.668,61.73
	C320.797,466.975,317.19,472.278,311.463,474.612z"/>
<path style="fill:#FE9923;" d="M311.463,474.612c-5.728,2.333-12.092,1.06-16.335-3.182L167.849,344.151l84.853-84.853
	l95.459,95.459v42.426l-1.908,1.908c-16.335,16.335-25.668,38.396-25.668,61.73C320.797,466.975,317.19,472.278,311.463,474.612z"/>
<path style="fill:#FEA832;" d="M498.794,13.205c-17.607-17.607-46.032-17.607-63.64,0c-17.606,17.606-17.607,46.032,0,63.64
	c17.607,17.607,46.034,17.606,63.64,0C516.402,59.238,516.402,30.813,498.794,13.205z"/>
<path style="fill:#FE9923;" d="M435.155,76.845l63.64-63.64c17.607,17.607,17.607,46.032,0,63.64
	C481.188,94.451,452.762,94.452,435.155,76.845z"/>
<path style="fill:#FEA832;" d="M210.276,407.79c-29.274,29.274-76.792,29.274-106.066,0s-29.274-76.792,0-106.066
	c5.94-5.94,15.273-5.94,21.213,0l84.853,84.853C216.216,392.517,216.216,401.85,210.276,407.79z"/>
<path style="fill:#FE9923;" d="M210.276,407.79c-29.274,29.274-76.792,29.274-106.066,0l63.64-63.64l42.426,42.426
	C216.216,392.517,216.216,401.85,210.276,407.79z"/>
<path style="fill:#FEDB41;" d="M456.368,288.977L348.161,397.184L114.816,163.838L223.023,55.632
	c64.277-64.277,169.069-64.277,233.345,0S520.645,224.701,456.368,288.977z"/>
<path style="fill:#FCBF29;" d="M456.368,288.977L348.161,397.184L231.489,280.511L456.368,55.632
	C520.645,119.909,520.645,224.701,456.368,288.977z"/>
<path style="fill:#FEDB41;" d="M326.948,503.25c-11.667,11.667-30.759,11.667-42.426,0L8.75,227.478
	c-11.667-11.667-11.667-30.759,0-42.426s30.759-11.667,42.426,0l275.772,275.772C338.615,472.49,338.615,491.583,326.948,503.25z"/>
<path style="fill:#FCBF29;" d="M326.948,503.25c-11.667,11.667-30.759,11.667-42.426,0L146.636,365.364l42.426-42.426
	l137.886,137.886C338.615,472.49,338.615,491.583,326.948,503.25z"/>
<g>
</g>
<g>
</g>
<g>
</g>
<g>
</g>
<g>
</g>
<g>
</g>
<g>
</g>
<g>
</g>
<g>
</g>
<g>
</g>
<g>
</g>
<g>
</g>
<g>
</g>
<g>
</g>
<g>
</g>
</svg>
