<svg id="Capa_1" enable-background="new 0 0 512 512" height="512" viewBox="0 0 512 512" width="512" xmlns="http://www.w3.org/2000/svg"><g><path d="m317.756 247-274.48 145.262c-26.693 13.514-43.276 40.495-43.276 70.415v39.568l317.756-161.113z" fill="#d599ed"/><path d="m233.034 291.864v14.087c0 30.97 25.106 56.077 56.077 56.077h105.93v79.941c0 38.678 31.354 70.032 70.032 70.032v-163.448c0-31.309-25.381-56.69-56.69-56.69h-175.349z" fill="#ad77e3"/><g><path d="m291.114 115.338c-31.799 0-57.67-25.87-57.67-57.669s25.871-57.669 57.67-57.669 57.669 25.87 57.669 57.669-25.87 57.669-57.669 57.669z" fill="#fdd0a7"/><path d="m60.928 143.671h142.065v30.038h-142.065z" fill="#fdd0a7"/><path d="m378.143 143.671h133.857v30.038h-133.857z" fill="#fcbc8a"/><path d="m380.125 143.671h-178.022v30.037h30.931v118.156h117.189v-118.156h29.902z" fill="#5ed8d3"/><path d="m348.783 57.669c0-31.799-25.87-57.669-57.669-57.669v115.338c31.799 0 57.669-25.87 57.669-57.669z" fill="#fcbc8a"/><path d="m291.114 143.671v148.193h59.109v-118.156h29.902v-30.037z" fill="#31bebe"/></g><path d="m408.383 291.864h-117.269l-.012 70.164h103.938v79.94c0 38.678 31.354 70.032 70.032 70.032v-163.447c.001-31.309-25.38-56.689-56.689-56.689z" fill="#935ed0"/></g></svg>